0
SECTION
2
HEADER
9
$INSUNITS
70
4
9
$ACADVER
1
AC1014
9
$HANDSEED
5
FFFF
0
ENDSEC
0
SECTION
2
TABLES
0
TABLE
2
VPORT
5
8
100
AcDbSymbolTable
0
ENDTAB
0
TABLE
2
LTYPE
5
5
100
AcDbSymbolTable
0
LTYPE
5
14
100
AcDbSymbolTableRecord
100
AcDbLinetypeTableRecord
2
BYBLOCK
70
0
0
LTYPE
5
15
100
AcDbSymbolTableRecord
100
AcDbLinetypeTableRecord
2
BYLAYER
70
0
0
LTYPE
5
16
100
AcDbSymbolTableRecord
100
AcDbLinetypeTableRecord
2
DASHED
70
0
3
Dashed __ __ __ __ __ __ __ __ __ __ __ __ __ _
72
65
73
2
40
0.75
49
0.5
74
0
49
-0.25
74
0
0
ENDTAB
0
TABLE
2
LAYER
5
2
100
AcDbSymbolTable
70
3
0
LAYER
5
50
100
AcDbSymbolTableRecord
100
AcDbLayerTableRecord
2
1
70
0
62
7
6
DASHED
0
LAYER
5
51
100
AcDbSymbolTableRecord
100
AcDbLayerTableRecord
2
0
70
0
62
7
6
CONTINUOUS
0
ENDTAB
0
TABLE
2
STYLE
5
3
100
AcDbSymbolTable
70
1
0
STYLE
5
11
100
AcDbSymbolTableRecord
100
AcDbTextStyleTableRecord
2
STANDARD
70
0
0
ENDTAB
0
TABLE
2
VIEW
5
6
100
AcDbSymbolTable
70
0
0
ENDTAB
0
TABLE
2
UCS
5
7
100
AcDbSymbolTable
70
0
0
ENDTAB
0
TABLE
2
APPID
5
9
100
AcDbSymbolTable
70
2
0
APPID
5
12
100
AcDbSymbolTableRecord
100
AcDbRegAppTableRecord
2
ACAD
70
0
0
ENDTAB
0
TABLE
2
DIMSTYLE
5
A
100
AcDbSymbolTable
70
1
0
ENDTAB
0
TABLE
2
BLOCK_RECORD
5
1
100
AcDbSymbolTable
70
1
0
BLOCK_RECORD
5
1F
100
AcDbSymbolTableRecord
100
AcDbBlockTableRecord
2
*MODEL_SPACE
0
BLOCK_RECORD
5
1B
100
AcDbSymbolTableRecord
100
AcDbBlockTableRecord
2
*PAPER_SPACE
0
ENDTAB
0
ENDSEC
0
SECTION
2
BLOCKS
0
BLOCK
5
20
100
AcDbEntity
100
AcDbBlockBegin
2
*MODEL_SPACE
0
ENDBLK
5
21
100
AcDbEntity
100
AcDbBlockEnd
0
BLOCK
5
1C
100
AcDbEntity
100
AcDbBlockBegin
2
*PAPER_SPACE
0
ENDBLK
5
1D
100
AcDbEntity
100
AcDbBlockEnd
0
ENDSEC
0
SECTION
2
ENTITIES
0
POINT
5
100
100
AcDbEntity
8
0
100
AcDbPoint
10
0
20
0
30
0
0
POINT
5
101
100
AcDbEntity
8
0
100
AcDbPoint
10
1.3322676295501878e-14
20
50.000000000000007
30
0
0
LINE
5
102
100
AcDbEntity
8
1
100
AcDbLine
10
-15.196184311253988
20
49.999999999999986
30
0
11
15.196184311254015
21
50.000000000000036
31
0
0
LINE
5
103
100
AcDbEntity
8
1
100
AcDbLine
10
-8.7138610188356136
20
65.556206239622824
30
0
11
-6.2499999999999867
21
50.000000000000014
31
0
0
LINE
5
104
100
AcDbEntity
8
1
100
AcDbLine
10
-15.472051613422344
20
49.034321892578333
30
0
11
-17.935912632258034
21
64.590528132201129
31
0
0
LINE
5
105
100
AcDbEntity
8
1
100
AcDbLine
10
-15.472051613422344
20
49.034321892578333
30
0
11
-20.339105215724103
21
64.013572638932061
31
0
0
LINE
5
106
100
AcDbEntity
8
0
100
AcDbLine
10
-18.444103226844703
20
48.068643785156624
30
0
11
-12.499999999999986
21
50.000000000000036
31
0
0
LINE
5
107
100
AcDbEntity
8
1
100
AcDbLine
10
-3.7861389811641737
20
65.55620623962281
30
0
11
-6.2499999999999867
21
50.000000000000014
31
0
0
LINE
5
108
100
AcDbEntity
8
1
100
AcDbLine
10
-6.2499999999999867
20
50.000000000000014
30
0
11
-6.2499999999998677
21
65.750116307183831
31
0
0
LINE
5
109
100
AcDbEntity
8
0
100
AcDbLine
10
-12.499999999999986
20
50.000000000000036
30
0
11
1.3322676295501878e-14
21
50.000000000000007
31
0
0
LINE
5
110
100
AcDbEntity
8
1
100
AcDbLine
10
-15.472051613422344
20
49.034321892578333
30
0
11
-22.622454786676663
21
63.067778279004742
31
0
0
LINE
5
111
100
AcDbEntity
8
1
100
AcDbLine
10
1.3322676295501878e-14
20
50.000000000000007
30
0
11
0
21
0
31
0
0
LINE
5
112
100
AcDbEntity
8
1
100
AcDbLine
10
15.196184311254015
20
49.999999999999972
30
0
11
-15.196184311253988
21
50.000000000000043
31
0
0
LINE
5
113
100
AcDbEntity
8
0
100
AcDbLine
10
18.444103226844732
20
48.06864378515661
30
0
11
12.500000000000014
21
50.000000000000036
31
0
0
LINE
5
114
100
AcDbEntity
8
0
100
AcDbLine
10
12.500000000000014
20
50.000000000000036
30
0
11
1.3322676295501878e-14
21
50.000000000000007
31
0
0
LINE
5
115
100
AcDbEntity
8
0
100
AcDbLine
10
18.444103226844732
20
48.06864378515661
30
0
11
7.0000000000000018
21
-2.2204460492503131e-15
31
0
0
LINE
5
116
100
AcDbEntity
8
0
100
AcDbLine
10
-7.0000000000000018
20
0
30
0
11
-18.444103226844703
21
48.068643785156624
31
0
0
LINE
5
117
100
AcDbEntity
8
0
100
AcDbLine
10
1.2486101340025978e-14
20
46.860334451876049
30
0
11
-13.499999999999993
21
46.860334451876085
31
0
0
LINE
5
118
100
AcDbEntity
8
0
100
AcDbLine
10
-13.499999999999993
20
46.860334451876085
30
0
11
-13.500000000000023
21
38.860334451876099
31
0
0
LINE
5
119
100
AcDbEntity
8
0
100
AcDbLine
10
-13.500000000000023
20
38.860334451876099
30
0
11
1.0354473132745677e-14
21
38.860334451876042
31
0
0
LINE
5
120
100
AcDbEntity
8
0
100
AcDbLine
10
1.1875091717609036e-14
20
46.860334451876049
30
0
11
13.500000000000016
21
46.860334451876085
31
0
0
LINE
5
121
100
AcDbEntity
8
0
100
AcDbLine
10
13.500000000000016
20
46.860334451876085
30
0
11
13.500000000000041
21
38.860334451876085
31
0
0
LINE
5
122
100
AcDbEntity
8
0
100
AcDbLine
10
13.500000000000041
20
38.860334451876085
30
0
11
9.7434635103287319e-15
21
38.860334451876042
31
0
0
LINE
5
123
100
AcDbEntity
8
1
100
AcDbLine
10
1.1875091717609036e-14
20
46.860334451876049
30
0
11
1.3322676295501878e-14
21
50.000000000000007
31
0
0
LINE
5
124
100
AcDbEntity
8
1
100
AcDbLine
10
9.7434635103287319e-15
20
38.860334451876042
30
0
11
8.0030546867376528e-15
21
35.720668903752092
31
0
0
LINE
5
125
100
AcDbEntity
8
0
100
AcDbLine
10
-3.9999999999999947
20
0
30
0
11
-3.9999999999997238
21
35.720668903752099
31
0
0
LINE
5
126
100
AcDbEntity
8
0
100
AcDbLine
10
-3.9999999999997238
20
35.720668903752099
30
0
11
3.9999999999999987
21
35.72066890375207
31
0
0
LINE
5
127
100
AcDbEntity
8
0
100
AcDbLine
10
3.9999999999999987
20
35.72066890375207
30
0
11
3.9999999999999947
21
0
31
0
0
LINE
5
128
100
AcDbEntity
8
1
100
AcDbLine
10
13.500000000000041
20
38.860334451876085
30
0
11
16.104195011312722
21
38.240332009837161
31
0
0
LINE
5
129
100
AcDbEntity
8
1
100
AcDbLine
10
13.500000000000016
20
46.860334451876085
30
0
11
14.327233050346502
21
49.406295992334734
31
0
0
LINE
5
130
100
AcDbEntity
8
0
100
AcDbLine
10
7.0000000000000018
20
-2.2204460492503131e-15
30
0
11
3.9999999999999947
21
0
31
0
0
LINE
5
131
100
AcDbEntity
8
0
100
AcDbLine
10
-3.9999999999999947
20
0
30
0
11
-7.0000000000000018
21
0
31
0
0
ENDSEC
0
SECTION
2
OBJECTS
0
DICTIONARY
5
C
100
AcDbDictionary
3
ACAD_GROUP
350
D
3
ACAD_MLINESTYLE
350
17
0
DICTIONARY
5
D
100
AcDbDictionary
0
DICTIONARY
5
1A
330
C
100
AcDbDictionary
0
DICTIONARY
5
17
100
AcDbDictionary
0
ENDSEC
0
EOF
